<svg xmlns="http://www.w3.org/2000/svg" width="25" height="30" fill="currentColor" viewBox="0 0 25 30">
  <path d="M24.802 19.374c-.168-1.237-.674-2.361-1.462-3.373-.787-.956-1.799-1.743-3.035-2.418a4.348 4.348 0 0 0-.9-.393l.337-.844c.506-1.461.787-2.867.844-4.273.056-1.405-.169-2.698-.675-3.823-.506-1.18-1.237-2.192-2.249-2.923-.956-.731-2.136-1.18-3.43-1.293-1.236-.113-2.53.056-3.879.506A14.785 14.785 0 0 0 6.53 2.564c-1.237.955-2.417 2.08-3.373 3.43C2.2 7.342 1.414 8.747.852 10.21c-.506 1.462-.787 2.867-.844 4.273-.056 1.405.17 2.698.675 3.823.056.168.169.337.225.506l-.169.337c-.506 1.18-.674 2.418-.506 3.598.169 1.237.675 2.362 1.462 3.374.787.956 1.8 1.743 3.036 2.417a13.852 13.852 0 0 0 4.16 1.293c1.575.225 3.149.225 4.78 0 1.63-.225 3.204-.674 4.61-1.349a13.61 13.61 0 0 0 3.654-2.361c1.012-.956 1.8-2.024 2.305-3.149.506-1.124.675-2.361.562-3.598ZM16.594 2.283v-.225c.112.056.281.168.393.28 1.63 1.181 2.474 3.262 2.418 5.792-.056 1.574-.45 3.148-1.125 4.722a13.154 13.154 0 0 0-2.136-.506 17.007 17.007 0 0 0-4.779 0c-1.124.169-2.249.45-3.317.787 0 0 0-.056.056-.056.057-.056.057-.112.113-.112.056-.056.056-.113.112-.113l.225-.225c.056-.056.113-.056.113-.112l.337-.337c.056-.057.112-.057.112-.113.057-.056.113-.056.113-.112l.168-.113c.057-.056.113-.056.17-.112l.168-.113.112-.112.169-.112c.056-.057.112-.057.169-.113l.337-.169c.225-.112.45-.28.675-.393l.28-.225.113-.112.338-.225.112-.113.281-.225.113-.112.168-.113.787-.787c.338-.337.675-.73 1.012-1.18l.113-.169c.056-.056.056-.112.112-.169l.225-.337c.056-.112.112-.225.225-.337l.112-.113.113-.168c.225-.45.45-.9.618-1.406 0-.056.056-.112.056-.169l.057-.168c.056-.113.056-.225.112-.338 0-.056.056-.112.056-.168 0-.057.057-.113.057-.169l.056-.169V3.52c.056-.224.112-.506.112-.73.113-.225.113-.338.169-.506ZM1.189 14.595c.056-2.586 1.125-5.397 2.924-7.815 1.799-2.417 4.16-4.216 6.634-5.06 2.136-.73 4.16-.618 5.734.282v.056c0 .112 0 .168-.056.28 0 .113-.056.226-.056.338-.056.225-.112.506-.169.731v.225l-.056.169c0 .056-.056.112-.056.168 0 .056-.056.113-.056.169-.056.112-.113.225-.113.337l-.056.169c0 .056-.056.112-.056.169-.225.45-.45.843-.731 1.293l-.113.168-.112.113a1.201 1.201 0 0 1-.225.28l-.225.282c-.056.056-.056.112-.112.112l-.225.113c-.337.393-.675.73-1.012 1.012l-.112.112c-.057.057-.113.057-.113.113l-.281.225c-.056.056-.169.112-.225.168l-.056.057-.169.112-.112.112-.281.225-.057.057-.168.056-.338.225-.112.112-.337.169c-.225.112-.394.225-.619.337l-.337.169c-.056.056-.113.112-.169.112l-.169.113c-.45.28-.9.562-1.293.843l-.168.112c-.056.057-.113.057-.169.113-.112.056-.225.169-.281.225-.056.056-.112.112-.169.112-.056.056-.112.113-.168.113l-.282.28c-.168.17-.337.394-.505.563-.057.112-.17.225-.225.337-.057.113-.169.225-.225.338-.056.056-.056.112-.113.168l-.056.056-.056.225c-1.012.563-1.912 1.181-2.643 1.912a9.119 9.119 0 0 0-1.405 1.574c-.281-.9-.45-1.968-.45-3.036Zm.225 8.04a5.51 5.51 0 0 1 .281-2.53c.169-.394.337-.844.562-1.238.394-.674.956-1.349 1.63-1.967.338-.281.62-.563 1.013-.844.562-.393 1.124-.787 1.799-1.068a15.136 15.136 0 0 1 4.835-1.462 14.201 14.201 0 0 1 6.184.394c.394.112.787.225 1.125.393.28.113.562.225.843.394 1.687.9 2.924 2.08 3.542 3.486v.056l-.112.112c-.113.057-.169.17-.282.225-.168.169-.393.281-.562.45-.393.281-.787.562-1.237.787-.393.225-.843.45-1.293.675-.225.112-.45.168-.674.281-.113.056-.225.056-.338.112l-.056.057h-.056c-.056 0-.113.056-.169.056l-.169.056c-.056 0-.112.056-.168.056h-.225c-.056 0-.112.056-.169.056l-.674.17c-.225.055-.45.055-.675.112h-2.924c-.056 0-.112 0-.168-.057l-.169-.056h-.225l-.168-.112c-.057 0-.113-.056-.17-.056l-.224-.057-.169-.056c-.224-.056-.506-.112-.73-.169l-.338-.056h-.225l-.337-.112h-.169l-.45-.056H8.386c-.506 0-1.012.056-1.518.112h-.17c-.055 0-.112 0-.168.056l-.393.056c-.113 0-.225.057-.394.057h-.225l-.168.056c-.113 0-.17.056-.282.056a6.694 6.694 0 0 0-1.124.45c-.056 0-.112.056-.169.056l-.168.056-.338.169c-.056.056-.112.056-.168.112-.057.057-.113.057-.169.113l-.169.112-.112.113c-.225.112-.394.28-.619.45-.112.056-.168.168-.28.224l-.17.17c-.112-.17-.168-.282-.168-.45Zm19.734 2.642c-1.912 1.743-4.61 2.98-7.59 3.373-2.98.394-5.903 0-8.264-1.18-2.024-1.013-3.317-2.53-3.767-4.273a.767.767 0 0 1 .225-.17c.112-.055.225-.168.28-.224.226-.113.394-.281.62-.394l.055-.056s.057 0 .057-.056l.168-.056c.057 0 .113-.056.169-.056.056 0 .112-.057.169-.057l.337-.168.169-.057h.056c.056 0 .056 0 .112-.056.45-.169.956-.28 1.406-.393l.169-.057h.224c.113 0 .225-.056.338-.056l.337-.056h.337a6.347 6.347 0 0 1 1.462 0h.337l.338.056c.112 0 .168 0 .28.056h.451l.337.057h.225l.337.112h.225l.225.056.113.056c.224.057.45.113.674.225l.338.113c.056 0 .112.056.168.056l.169.056 1.518.338h.338c.112 0 .28 0 .393.056h.787c.28 0 .506 0 .787-.056.112 0 .281 0 .393-.057.113 0 .282-.056.394-.056.056 0 .112 0 .169-.056h.224c.057 0 .113-.056.17-.056.055 0 .112-.056.168-.056.056 0 .112-.057.169-.057l.112-.056c.056 0 .056 0 .112-.056.057 0 .113-.056.17-.056l.168-.057c.056 0 .112-.056.168-.056.057 0 .057 0 .113-.056l.45-.225c.225-.112.45-.225.674-.393.45-.282.9-.563 1.293-.9.394-.337.787-.675 1.125-1.068.056-.113.168-.169.225-.281.056-.113.168-.225.225-.282.056-.112.168-.224.224-.337.113.337.225.731.282 1.068.618 2.193-.282 4.217-2.137 5.904Z"/>
</svg>
